HIERARCHY
ROOT joint_Root
{
	OFFSET 0.0 0.0 0.0
	CHANNELS 6 Xposition Yposition Zposition Zrotation Xrotation Yrotation 
	JOINT Hips
	{
		OFFSET 4.5925 91.4895 -427.239
		CHANNELS 6 Xposition Yposition Zposition Zrotation Xrotation Yrotation 
		JOINT Spine
		{
			OFFSET 15.7357 0.0 0.0
			CHANNELS 6 Xposition Yposition Zposition Zrotation Xrotation Yrotation 
			JOINT Chest
			{
				OFFSET 8.98455 -0.406207 0.0
				CHANNELS 6 Xposition Yposition Zposition Zrotation Xrotation Yrotation 
				JOINT Neck
				{
					OFFSET 16.3773 0.0 0.0
					CHANNELS 6 Xposition Yposition Zposition Zrotation Xrotation Yrotation 
					JOINT Head
					{
						OFFSET 6.45672 0.0 0.0
						CHANNELS 6 Xposition Yposition Zposition Zrotation Xrotation Yrotation 
						End Site
						{
							OFFSET 0.0 0.0 0.0
						}
					}
				}
				JOINT Shoulder_L
				{
					OFFSET 12.9942 -0.242716 4.98039
					CHANNELS 6 Xposition Yposition Zposition Zrotation Xrotation Yrotation 
					JOINT UpperArm_L
					{
						OFFSET 5.34809 0.0 0.0
						CHANNELS 6 Xposition Yposition Zposition Zrotation Xrotation Yrotation 
						JOINT LowerArm_L
						{
							OFFSET 24.3286 1.87007e-05 0.0
							CHANNELS 6 Xposition Yposition Zposition Zrotation Xrotation Yrotation 
							JOINT Hand_L
							{
								OFFSET 22.2916 0.0 0.0
								CHANNELS 6 Xposition Yposition Zposition Zrotation Xrotation Yrotation 
								End Site
								{
									OFFSET 0.0 0.0 0.0
								}
							}
						}
					}
				}
				JOINT Shoulder_R
				{
					OFFSET 12.9945 -0.242716 -4.98039
					CHANNELS 6 Xposition Yposition Zposition Zrotation Xrotation Yrotation 
					JOINT UpperArm_R
					{
						OFFSET -5.34813 0.0 0.0
						CHANNELS 6 Xposition Yposition Zposition Zrotation Xrotation Yrotation 
						JOINT LowerArm_R
						{
							OFFSET -24.3289 0.000322201 0.0
							CHANNELS 6 Xposition Yposition Zposition Zrotation Xrotation Yrotation 
							JOINT Hand_R
							{
								OFFSET -22.2915 -0.000108084 0.0
								CHANNELS 6 Xposition Yposition Zposition Zrotation Xrotation Yrotation 
								End Site
								{
									OFFSET 0.0 0.0 0.0
								}
							}
						}
					}
				}
			}
		}
		JOINT UpperLeg_L
		{
			OFFSET -2.19248 -6.46944 0.0
			CHANNELS 6 Xposition Yposition Zposition Zrotation Xrotation Yrotation 
			JOINT LowerLeg_L
			{
				OFFSET 39.0811 0.0 -1.23785e-05
				CHANNELS 6 Xposition Yposition Zposition Zrotation Xrotation Yrotation 
				JOINT Foot_L
				{
					OFFSET 40.9854 0.0 -1.26872e-05
					CHANNELS 6 Xposition Yposition Zposition Zrotation Xrotation Yrotation 
					JOINT Toes_L
					{
						OFFSET 11.7543 0.0 0.0
						CHANNELS 6 Xposition Yposition Zposition Zrotation Xrotation Yrotation 
						End Site
						{
							OFFSET 0.0 0.0 0.0
						}
					}
				}
			}
		}
		JOINT UpperLeg_R
		{
			OFFSET -2.19251 6.46944 0.0
			CHANNELS 6 Xposition Yposition Zposition Zrotation Xrotation Yrotation 
			JOINT LowerLeg_R
			{
				OFFSET -39.0811 -0.00228153 -0.0401928
				CHANNELS 6 Xposition Yposition Zposition Zrotation Xrotation Yrotation 
				JOINT Foot_R
				{
					OFFSET -40.9854 0.0 0.0
					CHANNELS 6 Xposition Yposition Zposition Zrotation Xrotation Yrotation 
					JOINT Toes_R
					{
						OFFSET -11.7543 0.0 0.0
						CHANNELS 6 Xposition Yposition Zposition Zrotation Xrotation Yrotation 
						End Site
						{
							OFFSET 0.0 0.0 0.0
						}
					}
				}
			}
		}
	}
}
MOTION
Frames:	4
Frame Time:	0.0333333
0.000000 0.000000 0.000000 0.000000 0.000000 -0.000000 -1.853950 91.192800 -7.122750 88.232300 -2.235850 9.016410 15.735700 0.000005 -0.000001 88.011300 74.999800 -88.420800 8.984550 -0.406207 -0.000000 22.215100 -1.064030 -0.613856 16.377300 -0.000001 -0.000001 16.172900 -2.513330 2.140620 6.456720 -0.000001 -0.000000 -14.445200 -2.431810 2.481850 12.994200 -0.242716 4.980390 -89.021700 -3.344010 -73.682600 5.348090 -0.000007 -0.000001 -76.947700 -13.337900 -80.397700 24.328600 0.000019 0.000005 38.661600 -6.051220 -97.506300 22.291600 -0.000001 0.000005 17.505400 5.120560 4.638310 12.994500 -0.242716 -4.980390 90.228300 -1.066430 -77.914800 -5.348130 -0.000001 -0.000004 -70.419200 -15.498500 -77.964600 -24.328900 0.000322 -0.000009 20.857600 -3.930600 -100.199000 -22.291500 -0.000108 -0.000004 25.527600 5.241560 1.654820 -2.192480 -6.469440 -0.000000 -173.845000 -13.312200 -6.970670 39.081100 -0.000007 -0.000012 -0.081771 0.135987 31.019300 40.985400 -0.000006 -0.000013 0.509284 6.988840 -64.818700 11.754300 -0.000000 0.000003 -0.000240 -0.002155 -16.658400 -2.192510 6.469440 -0.000001 177.969000 23.890400 174.981000 -39.081100 -0.002282 -0.040193 -0.120768 0.222896 29.102000 -40.985400 0.000008 0.000006 5.510490 16.551800 -65.531500 -11.754300 -0.000006 -0.000006 -0.001732 -0.025311 -17.602300
0.000000 0.000000 0.000000 0.000000 0.000000 -0.000000 -1.849220 91.214200 -7.125090 88.217800 -2.242910 8.894870 15.735700 0.000005 -0.000001 88.033400 74.996300 -88.439400 8.984550 -0.406207 -0.000000 22.222600 -1.052580 -0.609009 16.377300 -0.000001 -0.000001 16.137100 -2.508360 2.122890 6.456720 -0.000001 -0.000000 -14.465900 -2.416510 2.451470 12.994200 -0.242716 4.980390 -89.024600 -3.333520 -73.679300 5.348090 -0.000007 -0.000001 -76.994000 -13.257000 -80.456700 24.328600 0.000019 0.000005 38.604800 -6.118880 -97.604200 22.291600 -0.000001 0.000005 17.471600 5.119290 4.667990 12.994500 -0.242716 -4.980390 90.235800 -1.096770 -77.865600 -5.348130 -0.000001 -0.000004 -70.422500 -15.474900 -78.044200 -24.328900 0.000322 -0.000009 20.933500 -3.943950 -100.193000 -22.291500 -0.000108 -0.000004 25.758700 5.243760 1.596940 -2.192480 -6.469440 -0.000000 -173.856000 -13.351100 -7.043860 39.081100 -0.000007 -0.000012 -0.082274 0.137378 30.917100 40.985400 -0.000006 -0.000013 0.509314 7.009820 -64.765600 11.754300 -0.000000 0.000003 -0.000220 -0.002010 -16.653100 -2.192510 6.469440 -0.000001 178.043000 23.894200 174.905000 -39.081100 -0.002282 -0.040193 -0.118923 0.220732 28.975000 -40.985400 0.000008 0.000006 5.491300 16.545400 -65.458500 -11.754300 -0.000006 -0.000006 -0.001761 -0.025683 -17.617400
0.000000 0.000000 0.000000 0.000000 0.000000 -0.000000 -1.849380 91.220400 -7.134440 88.201300 -2.228690 8.731290 15.735700 0.000005 -0.000001 88.018300 75.019400 -88.423900 8.984550 -0.406207 -0.000000 22.176200 -1.058620 -0.607526 16.377300 -0.000001 -0.000001 16.060900 -2.496490 2.131800 6.456720 -0.000001 -0.000000 -14.468100 -2.386710 2.425310 12.994200 -0.242716 4.980390 -89.011300 -3.380360 -73.685400 5.348090 -0.000007 -0.000001 -77.036300 -13.201400 -80.450100 24.328600 0.000019 0.000005 38.642700 -6.189100 -97.679800 22.291600 -0.000001 0.000005 17.508400 5.121610 4.613910 12.994500 -0.242716 -4.980390 90.240800 -1.120360 -77.869500 -5.348130 -0.000001 -0.000004 -70.446300 -15.503300 -78.063300 -24.328900 0.000322 -0.000009 20.865200 -3.973850 -100.305000 -22.291500 -0.000108 -0.000004 25.674000 5.240990 1.669670 -2.192480 -6.469440 -0.000000 -173.882000 -13.375200 -7.216690 39.081100 -0.000007 -0.000012 -0.081300 0.135853 30.898200 40.985400 -0.000006 -0.000013 0.517964 7.036930 -64.742700 11.754300 -0.000000 0.000003 -0.000225 -0.002041 -16.654300 -2.192510 6.469440 -0.000001 178.136000 23.887900 174.736000 -39.081100 -0.002282 -0.040193 -0.120241 0.223489 28.933900 -40.985400 0.000008 0.000006 5.480390 16.531300 -65.426500 -11.754300 -0.000006 -0.000006 -0.001731 -0.025301 -17.601900
0.000000 0.000000 0.000000 0.000000 0.000000 -0.000000 -1.844710 91.228600 -7.126410 88.207400 -2.246400 8.645080 15.735700 0.000005 -0.000001 88.013200 75.016200 -88.428200 8.984550 -0.406207 -0.000000 22.182400 -1.062560 -0.625231 16.377300 -0.000001 -0.000001 16.001600 -2.487140 2.091030 6.456720 -0.000001 -0.000000 -14.593900 -2.391310 2.479650 12.994200 -0.242716 4.980390 -89.011100 -3.377370 -73.669700 5.348090 -0.000007 -0.000001 -77.035000 -13.175600 -80.482700 24.328600 0.000019 0.000005 38.645700 -6.202430 -97.695200 22.291600 -0.000001 0.000005 17.496500 5.122870 4.584530 12.994500 -0.242716 -4.980390 90.235900 -1.097270 -77.867100 -5.348130 -0.000001 -0.000004 -70.433700 -15.499500 -78.176600 -24.328900 0.000322 -0.000009 20.778700 -3.949840 -100.290000 -22.291500 -0.000108 -0.000004 25.730500 5.244340 1.581660 -2.192480 -6.469440 -0.000000 -173.910000 -13.390200 -7.275600 39.081100 -0.000007 -0.000012 -0.081077 0.135715 30.854600 40.985400 -0.000006 -0.000013 0.514612 7.018290 -64.727300 11.754300 -0.000000 0.000003 -0.000220 -0.002007 -16.653000 -2.192510 6.469440 -0.000001 178.159000 23.914600 174.666000 -39.081100 -0.002282 -0.040193 -0.119326 0.222202 28.893800 -40.985400 0.000008 0.000006 5.480400 16.571100 -65.409400 -11.754300 -0.000006 -0.000006 -0.001723 -0.025197 -17.597700
